<?xml version="1.0" encoding="UTF-8"?>
<svg xmlns="http://www.w3.org/2000/svg" version="1.1" xmlns:xlink="http://www.w3.org/1999/xlink" viewBox="0 0 628.1 227">
  <defs>
    <style>
      .cls-1 {
        fill: #004a72;
      }

      .cls-2 {
        fill: url(#Unbenannter_Verlauf);
      }
    </style>
    <linearGradient id="Unbenannter_Verlauf" data-name="Unbenannter Verlauf" x1="117.9" y1="1595.8" x2="510.2" y2="1941.6" gradientTransform="translate(0 -1693.3)" gradientUnits="userSpaceOnUse">
      <stop offset="0" stop-color="#004a72"/>
      <stop offset=".3" stop-color="#004a72"/>
      <stop offset=".8" stop-color="#e53212"/>
      <stop offset="1" stop-color="#e53212"/>
    </linearGradient>
  </defs>
  <!-- Generator: Adobe Illustrator 28.7.1, SVG Export Plug-In . SVG Version: 1.2.0 Build 142)  -->
  <g>
    <g id="a">
      <g>
        <g id="Verlauf">
          <path id="SVGID" class="cls-2" d="M525.3,116.9h14.9c6.5,0,9.3-1.5,10.7-7.6,1.5-5.9-.6-6.9-7.1-6.9h-15.5l-3,14.4ZM298.3,88.2l-3.6,16.7c-2.1,11,1.2,12.2,11.4,12.2s14.3-1.2,16.4-12.2l3.6-16.7c2.2-11-1.2-12-11.4-12-10.2,0-13.7,1.2-16.4,12M215.1,96.2h15.2c8.4,0,9-3,10.7-11.6,1.3-6.5,0-8.4-6.5-8.4h-15.1l-4.3,20ZM531.2,88.6h14.3c6.9,0,9-1.2,10.1-7.1,1.2-4.4.9-5.9-4.8-6.3h-16.9l-2.8,13.4ZM592.3,41.2h-.6v5.4h2.2c2.7,0,3.7-.8,3.7-2.6h0c0-2-1.2-2.7-3.7-2.7h-1.5c0-.1-.1-.1-.1-.1ZM589.3,54.4v-14.3c0-.6.2-1,.9-1,.8-.1,2.6-.1,3.6-.1,4,0,6.3,1.2,6.3,4.8h0c0,2.6-1.2,3.8-3.1,4.3l3.7,5.8c0,.1.1.2.1.3,0,.3-.1.6-.5.6h-1.3c-.2,0-.5-.1-.5-.3l-3.8-6.2h-.5c0-.1-2.2-.1-2.2-.1v5.8c0,.3-.2.8-.6.8h-1.2c-.8.2-1-.1-1-.3M583.8,47.3c0,5.9,4.8,10.7,10.7,10.7s10.8-4.8,10.8-10.7-4.9-10.8-10.8-10.8-10.7,4.8-10.7,10.8M187.5,133.4l15.6-74h38.2c17.1.2,24.8,3.7,20.8,22.2-2.7,12.4-4.2,19.7-18.8,22.9l-.2.9c8,.2,12.2,4.8,10.5,13.1l-3.1,14.9h-19.8l2.3-10.5c1.3-5.6-.2-9.3-6.3-9.3h-14.9l-4.2,19.9-20-.2ZM46.3,59.3h53.4l-3.5,15.9h-33.6l-2.8,13.4h31.6l-3,13.7h-31.5l-3.1,14.8h34.4c0,.1-3.5,16.3-3.5,16.3H30.6l15.7-74.1ZM139.9,117.2c8.4,0,11.4-.6,13.4-9.3l10.4-48.7h19.9l-10.6,49.9c-4.2,19.8-14.9,25.5-36.8,25.5s-31.1-7.7-27.5-25.5l10.6-49.9h19.9l-10.6,49.6c-1.7,8.3,2.7,8.4,10.9,8.4.1.1.2.1.3.1M455,117.2c8.4,0,11.4-.6,13.4-9.3l10.4-48.7h19.9l-10.6,49.9c-4.2,19.8-14.9,25.5-36.8,25.5s-31.1-7.7-27.5-25.5l10.6-49.9h19.9l-10.5,49.6c-1.7,8.3,2.7,8.4,10.9,8.4,0,.1.1.1.2.1M517.7,59.3h39c14.9-.2,23.1,2.4,19.7,18.7-2.1,9.3-5.1,15.6-15.5,17.1l-.2.9c10.9.6,11.4,7.4,9.3,16.7-3.8,18.3-12.9,20.6-28.7,20.6h-39.4l15.9-74.1ZM273.8,106.9l4.4-20.9c4.9-22.9,20.1-27.5,40.1-27.5s33.4,4.8,28.4,27.5l-4.4,20.9c-4.9,22.9-19.9,27.8-39.9,27.8s-33.5-5.1-28.6-27.8M581.7,47.3c0-7,5.7-12.8,12.8-12.8s12.8,5.7,12.8,12.8-5.7,12.6-12.8,12.6-12.8-5.6-12.8-12.6M378.7,117.2h30.4l-3.5,16.2h-50.7l23.1-109.2H26.9L0,150.8h596.1l26.8-126.7h-224.5l-19.7,93.1ZM32,0l-3.7,17.3h596.1L628.1,0H32Z"/>
        </g>
        <g id="Efficiency_in_Fluids">
          <path class="cls-1" d="M476.3,216.1c-2.4,0-4.5-.5-6.7-1.4-2.1-.9-3.7-2.3-5-4l4.4-4.1c.9,1.2,1.9,2.2,3,2.8s2.7,1,4.3,1,3.3-.3,4.2-1.2c.9-.8,1.4-1.6,1.4-2.8s-.2-1.4-.6-1.9c-.5-.5-1.3-.9-2.6-1.2l-2.8-.3c-2.4-.3-4.4-1.2-5.8-2.4s-2.1-3-2.1-5.5.2-2.7.8-4c.5-1.3,1.3-2.3,2.3-3.3s2.3-1.6,3.8-2.3c1.5-.5,3.3-.9,5.4-.9,4.5,0,8.3,1.5,10.7,4.8l-4.4,4.1c-.8-.9-1.6-1.6-2.8-2.2-1.2-.5-2.4-.9-3.8-.9s-2.8.3-3.7,1c-.8.6-1.3,1.5-1.3,2.7s.2,1.4.6,1.9c.5.5,1.3.9,2.6,1.2l2.8.3c2.6.3,4.4,1.2,5.8,2.4s2.1,3,2.1,5.5-.2,2.8-.9,4.1c-.5,1.3-1.4,2.4-2.4,3.5s-2.4,1.6-4,2.3c-1.5.5-3.3.7-5.2.7M444,210.3c1.2,0,2.2-.2,3-.9.9-.5,1.6-1.3,2.3-2.1.8-.9,1.4-1.7,1.9-2.9s.9-2.3,1.2-3.5l1-5.1c.2-1.5,0-2.8-1-3.8-1-1-2.4-1.5-4.2-1.5-4,0-6.4,2.4-7.4,7.4l-.9,4.1c-.1.3-.1.9-.2,1.5s-.1,1.2-.1,1.6c0,1.5.3,2.8,1,3.7.9,1.2,2.1,1.5,3.5,1.5M455,215.5c-1.4,0-2.6-.3-3.3-1.2-.9-.8-1.3-1.7-1.3-3s0-.6.1-1c0-.3.1-.6.1-.8v-.9c.1,0-.1,0-.1,0-1.3,2.4-2.6,4.3-4.1,5.6s-3.5,1.9-5.7,1.9-2.6-.2-3.6-.8c-1-.5-1.9-1.3-2.6-2.2-.6-1-1.2-2.1-1.5-3.5-.3-1.3-.5-2.8-.5-4.3,0-2.9.3-5.6,1.2-8.1s1.6-4.8,2.9-6.5c1.3-1.9,2.8-3.3,4.4-4.3,1.7-1,3.7-1.5,5.7-1.5s3.7.5,5.1,1.6c1.4,1,2.2,2.4,2.4,4.2h.2l3.7-17.6h6.9l-7.7,36.9h3.6l-1.2,5.7h-5ZM426.8,181.1c-1.3,0-2.2-.2-2.7-.8-.5-.5-.9-1.2-.9-1.9s.1-1.3.2-2.2c.2-1,.6-1.7,1.4-2.6.6-.8,1.7-1,3.5-1s2.2.2,2.7.8c.5.5.9,1.2.9,1.9s-.1,1.3-.2,2.2c-.2,1-.6,1.7-1.4,2.6-.7.7-1.9,1-3.5,1M421.8,215.5c-1.4,0-2.6-.3-3.5-1.2s-1.3-1.7-1.3-3.1,0-.9.1-1.4l5-24.2h6.9l-5,24.3h3.6l-1.2,5.7h-4.8c0-.1.1-.1.1-.1ZM396.4,185.4l-3.8,18.1c-.2,1.2-.3,2.2-.3,3,0,1.2.2,2.1.8,2.7s1.3,1,2.4,1,1.9-.2,2.7-.8c.8-.5,1.5-1.2,2.3-1.9,1.6-1.7,2.7-4,3.1-6.4l3.3-15.8h6.9l-5.1,24.3h3.6l-1.2,5.7h-5c-1.4,0-2.4-.3-3.3-1.2-.9-.8-1.3-1.7-1.3-3s0-.6.1-.9c0-.2.1-.6.1-.8v-.8c.1,0-.2,0-.2,0-1.2,2.3-2.4,4.2-4,5.5-1.5,1.3-3.3,1.9-5.6,1.9s-4.2-.6-5.4-2.1c-1.2-1.4-1.7-3.3-1.7-5.8s0-1.4.1-2.1c.1-.6.2-1.4.3-2.2l3.8-18.6h7.2v.2h0ZM374,215.5c-1.5,0-2.7-.3-3.6-1.2-.9-.8-1.3-1.7-1.3-3.1v-.6c0-.1.1-.3.1-.8l7.7-36.9h6.9l-7.7,36.9h3.8l-1.2,5.7h-4.8ZM338.4,215.5l8.4-40.1h24.3l-1.4,6.4h-17.1l-2.2,10.4h15.2l-1.4,6.4h-15.2l-3.6,17h-7.1.1ZM291.3,215.5l6.3-29.9h6.9l-1.4,6.6h.2c1.2-2.4,2.4-4.2,4.1-5.5,1.5-1.3,3.5-1.9,5.7-1.9s4.2.6,5.5,2.1c1.3,1.4,1.7,3.3,1.7,5.8s0,1.3-.1,2.1c-.1.6-.2,1.4-.3,2.2l-2.7,12.9h3.3l-1.2,5.7h-4.9c-1.4,0-2.4-.3-3.1-1-.8-.8-1.2-1.6-1.2-3s.1-1,.1-1.6l2.6-12.3c.2-1,.3-2.2.3-3.1s-.2-2.1-.8-2.7c-.5-.6-1.4-.9-2.7-.9s-1.9.2-2.8.8c-.9.5-1.6,1.2-2.3,1.9-.8.9-1.4,1.9-2.1,2.9-.5,1-1,2.2-1.2,3.5l-3.3,15.8-6.6-.3h0ZM286.5,181.1c-1.3,0-2.2-.2-2.7-.8-.5-.5-.9-1.2-.9-1.9s.1-1.3.2-2.2c.2-1,.6-1.7,1.4-2.6.6-.8,1.7-1,3.5-1s2.2.2,2.7.8c.5.5.9,1.2.9,1.9s-.1,1.3-.2,2.2c-.2,1-.6,1.7-1.4,2.6-.7.7-1.9,1-3.5,1M281.5,215.5c-1.4,0-2.6-.3-3.5-1.2s-1.3-1.7-1.3-3.1.1-.9.1-1.4l5-24.2h6.9l-5,24.3h3.6l-1.2,5.7h-4.7ZM256.5,185.4h7.4l-19.2,35.5c-.5,1-1.2,1.9-1.6,2.7-.6.8-1.3,1.4-2.1,1.9-.8.5-1.5.9-2.6,1.2-.9.2-2.1.3-3.1.3h-4.4l1.2-5.7h5.5l2.3-4.3-4.1-31.5h6.9l1.3,12.2.9,11h.2l5.2-11,6.2-12.2ZM217.7,216.1c-1.6,0-3.1-.2-4.5-.8-1.4-.5-2.6-1.3-3.6-2.3s-1.7-2.3-2.4-4c-.5-1.6-.8-3.5-.8-5.7s.3-5.1,1.2-7.4,1.9-4.2,3.3-5.8,3-2.9,5-4c1.9-.9,4-1.4,6.3-1.4s5.1.6,7,2.1c1.9,1.4,3,3.1,3.5,5.5l-5.8,2.3c-.3-1.3-.9-2.3-1.6-2.9-.6-.8-1.7-1.2-3.3-1.2-3.7,0-6.2,2.3-7,6.9l-1,5c-.2.9-.2,1.6-.2,2.4,0,1.6.3,2.9,1.3,4s2.2,1.5,4,1.5,2.7-.3,3.7-1.3c.9-.9,1.9-2.2,2.8-3.8l5.4,2.6c-1.3,2.7-3,4.9-5.1,6.3-2.6,1.4-5,2.1-7.8,2.1M172.5,215.5l6.3-29.9h6.9l-1.4,6.6h.2c1.2-2.4,2.4-4.2,4.1-5.5,1.5-1.3,3.5-1.9,5.7-1.9s4.2.6,5.5,2.1c1.3,1.4,1.7,3.3,1.7,5.8s0,1.3-.1,2.1c-.1.6-.2,1.4-.3,2.2l-2.7,12.9h3.3l-1.2,5.7h-4.9c-1.4,0-2.4-.3-3.3-1-.8-.8-1.2-1.6-1.2-3s.1-1,.1-1.6l2.6-12.3c.2-1,.3-2.2.3-3.1s-.2-2.1-.8-2.7c-.5-.6-1.4-.9-2.7-.9s-1.9.2-2.8.8c-.9.5-1.6,1.2-2.3,1.9-.8.9-1.4,1.9-2.1,2.9-.6,1-1,2.2-1.2,3.5l-3.3,15.8-6.5-.3h0ZM159.9,190.2c-1.9,0-3.6.6-4.9,1.9-1.4,1.3-2.3,2.9-2.7,5.1l-.2,1.4c2.4-.1,4.4-.2,5.9-.6,1.5-.2,2.8-.6,3.6-1,.9-.3,1.4-.9,1.7-1.5.2-.5.5-1.3.5-1.9s-.1-1.3-.3-1.6c-.2-.3-.5-.8-.9-1-.3-.2-.8-.3-1.3-.5-.3-.1-.9-.2-1.4-.2M156.3,216.1c-4.1,0-7-1.2-9.1-3.5s-3-5.4-2.9-9.4c0-2.4.3-4.8,1.2-7,.8-2.3,1.9-4.2,3.3-5.9,1.4-1.7,3-3,5.1-4.1,1.9-1,4.2-1.5,6.6-1.5s2.4.1,3.6.3c1.3.2,2.3.8,3.3,1.4s1.7,1.5,2.4,2.6c.6,1,.9,2.4.9,4,0,3.1-1.5,5.6-4.8,7.4-3,1.7-8,2.7-14.8,2.8-.1.8-.1,1.3-.1,1.6,0,1.6.3,2.9,1.4,4s2.4,1.5,4.4,1.5,2.8-.3,4.1-1c1.3-.6,2.6-1.7,3.8-3.5l4.2,3.6c-1.9,2.4-3.8,4.1-5.8,5.1s-4.3,1.6-6.9,1.6M138.6,181.1c-1.3,0-2.2-.2-2.7-.8-.5-.5-.9-1.2-.9-1.9s.1-1.3.2-2.2c.2-1,.6-1.7,1.4-2.6.6-.8,1.7-1,3.5-1s2.2.2,2.7.8c.5.5.9,1.2.9,1.9s-.1,1.3-.2,2.2c-.2,1-.6,1.7-1.4,2.6-.8.7-2,1-3.5,1M133.5,215.5c-1.4,0-2.6-.3-3.5-1.2s-1.3-1.7-1.3-3.1.1-.9.1-1.4l5-24.2h6.9l-5,24.3h3.6l-1.2,5.7h-4.8c0-.1.1-.1.1-.1ZM112.4,216.1c-1.6,0-3.1-.2-4.5-.8-1.4-.5-2.6-1.3-3.6-2.3s-1.7-2.3-2.4-4c-.5-1.6-.8-3.5-.8-5.7s.3-5.1,1.2-7.4,1.9-4.2,3.3-5.8c1.4-1.6,3-2.9,5-4,1.9-.9,4-1.4,6.3-1.4s5.1.6,7,2.1c1.9,1.4,3,3.1,3.5,5.5l-5.8,2.3c-.3-1.3-.9-2.3-1.6-2.9-.6-.8-1.7-1.2-3.3-1.2-3.7,0-6.2,2.3-7,6.9l-1,5c-.2.9-.2,1.6-.2,2.4,0,1.6.3,2.9,1.3,4s2.2,1.5,4,1.5,2.7-.3,3.7-1.3c.9-.9,1.9-2.2,2.8-3.8l5.4,2.6c-1.3,2.7-3,4.9-5.1,6.3-2.6,1.4-5,2.1-7.8,2.1M95.1,181.1c-1.3,0-2.2-.2-2.7-.8-.5-.5-.9-1.2-.9-1.9s.1-1.3.2-2.2c.2-1,.6-1.7,1.4-2.6s1.7-1,3.5-1,2.2.2,2.7.8c.5.5.9,1.2.9,1.9s-.1,1.3-.2,2.2c-.2,1-.6,1.7-1.4,2.6-.7.7-1.7,1-3.5,1M69.2,185.4h4.3l.9-4.5c.5-2.6,1.6-4.5,3.1-5.9,1.5-1.4,3.8-2.1,6.7-2.1h4.1l-1.3,5.7h-5.4l-1.4,6.9h17.2l-5,24.3h3.6l-1.2,5.7h-4.9c-1.4,0-2.6-.3-3.5-1.2s-1.3-1.7-1.3-3.1.1-.9.1-1.4l3.8-18.6h-10.2l-5.7,27.8c-.5,2.6-1.6,4.5-3.1,5.9-1.5,1.4-3.8,2.1-6.6,2.1h-4.2l1.2-5.7h5.5l6.3-30.1h-4.2l1-5.7ZM53,218.9c-.5,2.6-1.6,4.5-3.1,5.9-1.5,1.4-3.8,2.1-6.6,2.1h-4.2l1.2-5.7h5.5l6.3-30.1h-4.3l1.2-5.7h4.2l.9-4.5c.5-2.6,1.6-4.5,3.1-5.9,1.5-1.4,3.8-2.1,6.7-2.1h4.4l-1.3,5.7h-5.6l-1.4,6.9h5.8l-1.2,5.7h-5.8l-5.8,27.8ZM13.6,215.5l8.4-40.1h25.1l-1.4,6.4h-17.8l-2.2,10.4h15.8l-1.3,6.4h-15.9l-2.2,10.5h18.5l-1.3,6.4H13.6Z"/>
        </g>
      </g>
    </g>
  </g>
</svg>